<?xml version="1.0" encoding="utf-8"?>
<!-- Generator: Adobe Illustrator 16.0.0, SVG Export Plug-In . SVG Version: 6.00 Build 0)  -->
<!DOCTYPE svg PUBLIC "-//W3C//DTD SVG 1.1//EN" "http://www.w3.org/Graphics/SVG/1.1/DTD/svg11.dtd">
<svg version="1.1" id="Layer_1" xmlns="http://www.w3.org/2000/svg" xmlns:xlink="http://www.w3.org/1999/xlink" x="0px" y="0px"
	 width="16px" height="14px" viewBox="0 0 16 14" enable-background="new 0 0 16 14" xml:space="preserve">
<path fill="#FFFFFF" d="M1.704,3.123h6.72c0.941,0,1.704,0.763,1.704,1.704v4.431c0,0.941-0.763,1.704-1.704,1.704h-6.72
	C0.763,10.962,0,10.199,0,9.258V4.827C0,3.885,0.763,3.123,1.704,3.123z"/>
<path fill="#FFFFFF" d="M15.646,3.346c0.48,0.479,0.543,6.281,0,7.221c-0.343,0.596-1.491,0.572-2.062,0l-2.579-2.579
	c-0.572-0.572-0.572-1.492,0-2.064l2.579-2.579C14.155,2.775,15.161,2.86,15.646,3.346L15.646,3.346z"/>
</svg>
