<?xml version="1.0" encoding="utf-8"?>
<!-- Generator: Adobe Illustrator 16.0.0, SVG Export Plug-In . SVG Version: 6.00 Build 0)  -->
<!DOCTYPE svg PUBLIC "-//W3C//DTD SVG 1.1//EN" "http://www.w3.org/Graphics/SVG/1.1/DTD/svg11.dtd">
<svg version="1.1" id="Layer_1" xmlns="http://www.w3.org/2000/svg" xmlns:xlink="http://www.w3.org/1999/xlink" x="0px" y="0px"
	 width="261px" height="27px" viewBox="0 0 261 27" enable-background="new 0 0 261 27" xml:space="preserve">
<g>
	<rect x="1" y="1" fill="#FF0101" width="259" height="25"/>
	<g>
		<path fill="#FFFFFF" d="M6.615,21.662V5h4.871c2.01,0,3.58,0.28,4.712,0.842c1.399,0.708,2.474,1.766,3.223,3.174
			c0.643,1.221,0.964,2.604,0.964,4.15c0,1.872-0.451,3.54-1.354,5.005c-1.44,2.327-3.801,3.491-7.08,3.491H6.615z M10.668,8.246
			v10.096h0.623c1.326,0,2.421-0.37,3.283-1.111c0.537-0.463,0.956-1.039,1.258-1.727c0.301-0.688,0.451-1.422,0.451-2.203
			c0-1.042-0.261-2.011-0.781-2.906c-0.464-0.789-1.135-1.367-2.014-1.732c-0.668-0.277-1.348-0.416-2.039-0.416H10.668z"/>
		<path fill="#FFFFFF" d="M29.28,8.271v3.405h4.22v3.271h-4.22v3.442h5.493v3.271h-9.546V5h9.546v3.271H29.28z"/>
		<path fill="#FFFFFF" d="M39.75,16.608h3.833c-0.007,0.114-0.011,0.212-0.011,0.293c0,0.334,0.118,0.627,0.354,0.879
			c0.408,0.423,0.927,0.635,1.557,0.635c0.519,0,0.944-0.154,1.274-0.464c0.26-0.244,0.389-0.533,0.389-0.867
			c0-0.423-0.216-0.776-0.648-1.062c-0.276-0.195-0.834-0.443-1.675-0.745c-1.542-0.577-2.713-1.225-3.515-1.94
			c-0.936-0.83-1.404-1.981-1.404-3.454c0-1.628,0.535-2.91,1.604-3.846c1.046-0.911,2.372-1.367,3.976-1.367
			c1.557,0,2.846,0.436,3.869,1.307c1.029,0.879,1.659,2.192,1.887,3.942h-3.987c-0.118-1.115-0.716-1.673-1.793-1.673
			c-0.575,0-1,0.155-1.274,0.465c-0.221,0.244-0.33,0.528-0.33,0.854c0,0.497,0.247,0.899,0.743,1.209
			c0.243,0.154,0.856,0.428,1.84,0.818c1.651,0.635,2.804,1.261,3.457,1.879c0.904,0.855,1.356,1.97,1.356,3.346
			c0,1.822-0.684,3.197-2.052,4.125c-1.038,0.7-2.281,1.051-3.728,1.051c-1.14,0-2.148-0.223-3.025-0.666
			c-0.876-0.443-1.551-1.08-2.023-1.91C39.974,18.651,39.75,17.715,39.75,16.608z"/>
		<path fill="#FFFFFF" d="M60.25,5v16.662h-3.763V5H60.25z"/>
		<path fill="#FFFFFF" d="M73.744,12.158h8.12c0.007,0.367,0.011,0.666,0.011,0.91c0,2.686-0.875,4.875-2.625,6.567
			c-1.633,1.57-3.574,2.356-5.819,2.356c-1.154,0-2.255-0.229-3.305-0.684c-1.049-0.456-1.965-1.104-2.748-1.941
			c-1.502-1.611-2.253-3.621-2.253-6.03c0-2.507,0.821-4.598,2.463-6.274c1.572-1.595,3.503-2.393,5.797-2.393
			c1.703,0,3.275,0.477,4.716,1.428c0.727,0.48,1.381,1.1,1.962,1.855l-2.915,2.393c-0.984-1.285-2.192-1.928-3.625-1.928
			c-1.626,0-2.85,0.684-3.67,2.051c-0.55,0.911-0.825,1.879-0.825,2.904c0,1.555,0.546,2.82,1.638,3.797
			c0.859,0.765,1.863,1.147,3.008,1.147c1.169,0,2.172-0.436,3.009-1.306c0.418-0.424,0.735-0.953,0.953-1.588v-0.266h-3.892V12.158
			z"/>
		<path fill="#FFFFFF" d="M90.858,12.178v9.484H87V5h3.858l5.784,9.362V5h3.858v16.662h-3.858L90.858,12.178z"/>
		<path fill="#FFFFFF" d="M115.287,19.245h-5.679l-0.704,2.417h-4.154L110.042,5h4.94l5.268,16.662h-4.271L115.287,19.245z
			 M114.312,15.974l-1.877-6.201l-1.865,6.201H114.312z"/>
		<path fill="#FFFFFF" d="M129.759,15.658v6.004h-4.053V5h4.053v7.158h5.481V5h4.053v16.662h-4.053v-6.004H129.759z"/>
		<path fill="#FFFFFF" d="M153,4.658c1.158,0,2.256,0.237,3.291,0.714c1.035,0.476,1.943,1.161,2.723,2.057
			c1.407,1.604,2.111,3.528,2.111,5.774c0,1.285-0.248,2.51-0.742,3.674s-1.19,2.165-2.086,3.003
			c-1.523,1.408-3.343,2.112-5.461,2.112c-1.229,0-2.4-0.257-3.518-0.77c-1.116-0.513-2.076-1.237-2.88-2.173
			c-1.376-1.595-2.063-3.499-2.063-5.713c0-1.188,0.23-2.329,0.689-3.424s1.115-2.069,1.965-2.924
			C148.591,5.435,150.58,4.658,153,4.658z M152.697,8.418c-1.298,0-2.391,0.532-3.28,1.599c-0.749,0.903-1.124,2.015-1.124,3.333
			c0,1.432,0.453,2.611,1.355,3.539c0.881,0.912,1.92,1.367,3.119,1.367c1.305,0,2.403-0.521,3.291-1.562
			c0.781-0.902,1.172-2.034,1.172-3.393c0-1.481-0.488-2.698-1.461-3.65C154.928,8.828,153.903,8.418,152.697,8.418z"/>
		<path fill="#FFFFFF" d="M200.453,15.408c-0.19,0.467-0.438,0.901-0.77,1.285c-0.888,1.042-1.986,1.562-3.291,1.562
			c-1.199,0-2.238-0.455-3.119-1.367c-0.902-0.928-1.355-2.107-1.355-3.539c0-1.318,0.375-2.43,1.124-3.333
			c0.89-1.066,1.982-1.599,3.28-1.599c1.206,0,2.23,0.41,3.072,1.232c0.383,0.374,0.668,0.802,0.9,1.258h4.179
			c-0.324-1.291-0.934-2.452-1.835-3.479c-0.779-0.896-1.688-1.581-2.723-2.057c-1.035-0.477-2.133-0.714-3.291-0.714
			c-2.42,0-4.409,0.776-5.971,2.331c-0.85,0.854-1.506,1.829-1.965,2.924S188,12.148,188,13.337c0,2.214,0.688,4.118,2.063,5.713
			c0.804,0.936,1.764,1.66,2.88,2.173c1.117,0.513,2.289,0.77,3.518,0.77c2.118,0,3.938-0.704,5.461-2.112
			c0.896-0.838,1.592-1.839,2.086-3.003c0.203-0.479,0.354-0.97,0.474-1.469H200.453z"/>
		<path fill="#FFFFFF" d="M169.868,18.391h4.316v3.271h-8.369V5h4.053V18.391z"/>
		<path fill="#FFFFFF" d="M183.744,5v16.662h-4.053V5H183.744z"/>
		<path fill="#FFFFFF" d="M211.148,17.829c0.611,0,1.111,0.212,1.502,0.635c0.373,0.407,0.561,0.896,0.561,1.465
			c0,0.676-0.24,1.221-0.719,1.636c-0.367,0.317-0.826,0.477-1.381,0.477c-0.643,0-1.158-0.212-1.549-0.635
			c-0.375-0.407-0.562-0.904-0.562-1.49c0-0.65,0.24-1.188,0.721-1.611C210.086,17.988,210.562,17.829,211.148,17.829z"/>
		<path fill="#FFFFFF" d="M247.676,16.291l-2.746,5.371h-4.639l5.102-8.947L241.059,5h4.627l1.99,4.658L249.799,5h4.578
			l-4.406,7.715L255,21.662h-4.602L247.676,16.291z"/>
		<polygon fill="#FFFFFF" points="230.956,5 226.5,15.658 222.533,5 218,5 218,21.662 221.878,21.662 221.878,12.152 
			226.195,21.662 226.838,21.662 231.622,12.152 231.622,21.662 235.5,21.662 235.5,5 		"/>
	</g>
</g>
</svg>
