<?xml version="1.0" encoding="utf-8"?>
<!-- Generator: Adobe Illustrator 16.0.0, SVG Export Plug-In . SVG Version: 6.00 Build 0)  -->
<!DOCTYPE svg PUBLIC "-//W3C//DTD SVG 1.1//EN" "http://www.w3.org/Graphics/SVG/1.1/DTD/svg11.dtd">
<svg version="1.1" id="Layer_1" xmlns="http://www.w3.org/2000/svg" xmlns:xlink="http://www.w3.org/1999/xlink" x="0px" y="0px"
	 width="15px" height="15px" viewBox="2.5 2.5 15 15" enable-background="new 2.5 2.5 15 15" xml:space="preserve">
<g>
	<path fill="#919191" d="M16.399,17.563c-0.308,0-0.608-0.127-0.818-0.347l-3.118-3.108c-1.063,0.736-2.336,1.128-3.627,1.128
		c-3.536,0-6.399-2.863-6.399-6.399s2.864-6.399,6.4-6.399c3.536,0,6.399,2.863,6.399,6.399c0,1.291-0.392,2.563-1.127,3.628
		l3.118,3.117c0.209,0.208,0.335,0.51,0.335,0.817C17.562,17.035,17.036,17.563,16.399,17.563z M8.837,4.764
		c-2.245,0-4.073,1.828-4.073,4.072c0,2.245,1.828,4.073,4.073,4.073s4.072-1.828,4.072-4.073
		C12.909,6.592,11.082,4.764,8.837,4.764z"/>
</g>
</svg>
