<?xml version="1.0" encoding="utf-8"?>
<!-- Generator: Adobe Illustrator 16.0.0, SVG Export Plug-In . SVG Version: 6.00 Build 0)  -->
<!DOCTYPE svg PUBLIC "-//W3C//DTD SVG 1.1//EN" "http://www.w3.org/Graphics/SVG/1.1/DTD/svg11.dtd">
<svg version="1.1" id="Layer_1" xmlns="http://www.w3.org/2000/svg" xmlns:xlink="http://www.w3.org/1999/xlink" x="0px" y="0px"
	 width="20px" height="20px" viewBox="0 0 20 20" enable-background="new 0 0 20 20" xml:space="preserve">
<g>
	<path fill="#FFFFFF" d="M18.374,19.896c-0.403,0-0.797-0.166-1.071-0.453l-4.08-4.067c-1.392,0.964-3.057,1.476-4.746,1.476
		c-4.627,0-8.374-3.746-8.374-8.374c0-4.627,3.747-8.374,8.375-8.374c4.627,0,8.374,3.747,8.374,8.374
		c0,1.689-0.512,3.354-1.475,4.747l4.08,4.08c0.273,0.271,0.439,0.665,0.439,1.069C19.896,19.206,19.207,19.896,18.374,19.896z
		 M8.478,3.148c-2.938,0-5.329,2.392-5.329,5.329s2.391,5.33,5.329,5.33s5.329-2.393,5.329-5.33S11.416,3.148,8.478,3.148z"/>
</g>
</svg>
